STARTFONT 2.1
FONT HAN-GB2312
SIZE 14 72 72
FONTBOUNDINGBOX 6 14 0 0
STARTPROPERTIES 1
BITCOUNT 8
ENDPROPERTIES
CHARS 27
STARTCHAR  00A4
ENCODING  164
SWIDTH  1000 0
DWIDTH  11 0
BBX  9 9 1 1
BITMAP
000000000000000000
30E0A0F0FFE0A0E010
00E0F0603080FFA000
30FF6000000080F000
40FF2000000060FF10
30FF4000000080FF10
00E0E0300040F0C000
30E0E0FFFFFFE0E010
002000203010002000
ENDCHAR
STARTCHAR  00A7
ENCODING  167
SWIDTH  1000 0
DWIDTH  6 0
BBX  6 11 0 -1
BITMAP
00A0F0F08000
40FF6080FF10
40FF80308010
00E0FFF08000
30FF80A0FF10
40FF6080FF10
10E0FFFFC000
206040C0FF10
40FF3060FF10
10E0FFFFA000
000020200000
ENDCHAR
STARTCHAR  00A8
ENCODING  168
SWIDTH  1000 0
DWIDTH  5 0
BBX  5 2 0 8
BITMAP
40FF60FF20
1030103000
ENDCHAR
STARTCHAR  00B0
ENCODING  176
SWIDTH  1000 0
DWIDTH  6 0
BBX  5 5 1 5
BITMAP
00A0F08000
30FFA0FF10
40FF80FF10
00E0FFA000
0000200000
ENDCHAR
STARTCHAR  00B1
ENCODING  177
SWIDTH  1000 0
DWIDTH  7 0
BBX  5 7 1 0
BITMAP
0040FF2000
0040FF2000
FFFFFFFFFF
3060FF4030
0040FF2000
3030303030
FFFFFFFFFF
ENDCHAR
STARTCHAR  00B7
ENCODING  183
SWIDTH  1000 0
DWIDTH  3 0
BBX  3 2 0 3
BITMAP
40FF20
103000
ENDCHAR
STARTCHAR  00E0
ENCODING  224
SWIDTH  1000 0
DWIDTH  6 0
BBX  6 10 0 0
BITMAP
0060E0000000
0000C0300000
000000000000
00A0F0F08000
40FF6080FF10
206020A0FF20
10C0F0C0FF20
40FF3040FF20
40FF6080FF20
10C0FFE0FF20
ENDCHAR
STARTCHAR  00E1
ENCODING  225
SWIDTH  1000 0
DWIDTH  6 0
BBX  6 10 0 0
BITMAP
000030F02000
000080600000
000000000000
00A0F0F08000
40FF6080FF10
206020A0FF20
10C0F0C0FF20
40FF3040FF20
40FF6080FF20
10C0FFE0FF20
ENDCHAR
STARTCHAR  00E8
ENCODING  232
SWIDTH  1000 0
DWIDTH  6 0
BBX  6 10 0 0
BITMAP
0030F0100000
000080600000
000000000000
00A0F0F06000
40FF6080FF10
40FF2040FF20
40FFFFFFFF20
40FF40406010
40FF6080FF10
00A0F0F08000
ENDCHAR
STARTCHAR  00E9
ENCODING  233
SWIDTH  1000 0
DWIDTH  6 0
BBX  6 10 0 0
BITMAP
000040E00000
0000A0400000
000000000000
00A0F0F06000
40FF6080FF10
40FF2040FF20
40FFFFFFFF20
40FF40406010
40FF6080FF10
00A0F0F08000
ENDCHAR
STARTCHAR  00EA
ENCODING  234
SWIDTH  1000 0
DWIDTH  6 0
BBX  6 10 0 0
BITMAP
0030F0E01000
00C040A08000
000000000000
00A0F0F06000
40FF6080FF10
40FF2040FF20
40FFFFFFFF20
40FF40406010
40FF6080FF10
00A0F0F08000
ENDCHAR
STARTCHAR  00EC
ENCODING  236
SWIDTH  1000 0
DWIDTH  3 0
BBX  3 10 0 0
BITMAP
60A000
002000
000000
40FF20
40FF20
40FF20
40FF20
40FF20
40FF20
40FF20
ENDCHAR
STARTCHAR  00ED
ENCODING  237
SWIDTH  1000 0
DWIDTH  3 0
BBX  3 10 0 0
BITMAP
00C060
002000
000000
40FF20
40FF20
40FF20
40FF20
40FF20
40FF20
40FF20
ENDCHAR
STARTCHAR  00F2
ENCODING  242
SWIDTH  1000 0
DWIDTH  6 0
BBX  6 10 0 0
BITMAP
0030F0000000
0000A0400000
000000000000
00A0F0F08000
40FF6080FF10
40FF2040FF20
40FF2040FF20
40FF2040FF20
40FF6080FF10
00A0F0F08000
ENDCHAR
STARTCHAR  00F3
ENCODING  243
SWIDTH  1000 0
DWIDTH  6 0
BBX  6 10 0 0
BITMAP
000030E01000
000080600000
000000000000
00A0F0F08000
40FF6080FF10
40FF2040FF20
40FF2040FF20
40FF2040FF20
40FF6080FF10
00A0F0F08000
ENDCHAR
STARTCHAR  00F7
ENCODING  247
SWIDTH  1000 0
DWIDTH  4 0
BBX  3 3 0 3
BITMAP
003020
006020
000000
ENDCHAR
STARTCHAR  00F9
ENCODING  249
SWIDTH  1000 0
DWIDTH  6 0
BBX  6 10 0 0
BITMAP
0040E0100000
000020100000
000000000000
40FF2040FF20
40FF2040FF20
40FF2040FF20
40FF2040FF20
40FF2040FF20
40FF4060FF20
10C0F0E0FF20
ENDCHAR
STARTCHAR  00FA
ENCODING  250
SWIDTH  1000 0
DWIDTH  6 0
BBX  6 10 0 0
BITMAP
000040C01000
000020100000
000000000000
40FF2040FF20
40FF2040FF20
40FF2040FF20
40FF2040FF20
40FF2040FF20
40FF4060FF20
10C0F0E0FF20
ENDCHAR
STARTCHAR  00FC
ENCODING  252
SWIDTH  1000 0
DWIDTH  6 0
BBX  6 10 0 0
BITMAP
40FF2040FF20
103000103000
000000000000
40FF2040FF20
40FF2040FF20
40FF2040FF20
40FF2040FF20
40FF2040FF20
40FF4060FF20
10C0F0E0FF20
ENDCHAR
STARTCHAR  02C7
ENCODING  711
SWIDTH  1000 0
DWIDTH  5 0
BBX  5 2 0 8
BITMAP
10E040E030
0030804000
ENDCHAR
STARTCHAR  2014
ENCODING  8212
SWIDTH  1000 0
DWIDTH  12 0
BBX  10 2 1 3
BITMAP
FFFFFFFFFFFFFFFFFFFF
30303030303030303030
ENDCHAR
STARTCHAR  2018
ENCODING  8216
SWIDTH  1000 0
DWIDTH  3 0
BBX  2 3 1 7
BITMAP
A010
FF80
4020
ENDCHAR
STARTCHAR  2019
ENCODING  8217
SWIDTH  1000 0
DWIDTH  3 0
BBX  2 3 0 7
BITMAP
80FF
10E0
1030
ENDCHAR
STARTCHAR  201C
ENCODING  8220
SWIDTH  1000 0
DWIDTH  5 0
BBX  4 3 1 7
BITMAP
A010A010
FF60FF80
40104020
ENDCHAR
STARTCHAR  201D
ENCODING  8221
SWIDTH  1000 0
DWIDTH  5 0
BBX  4 3 0 7
BITMAP
80FF60FF
10E010C0
10201030
ENDCHAR
STARTCHAR  2026
ENCODING  8230
SWIDTH  1000 0
DWIDTH  13 0
BBX  9 2 2 0
BITMAP
103000103000103000
40FF2040FF2040FF20
ENDCHAR
STARTCHAR  2030
ENCODING  8240
SWIDTH  1000 0
DWIDTH  11 0
BBX  11 10 0 0
BITMAP
20F0E00000202000000000
40FFFF2000400000000000
40FFFF2010300000000000
40FFFF2040000000000000
30FFF01040000000000000
0010103020C0C020C0C000
0000004040FFFF60FFFF20
0000202040FFFF60FFFF20
0000400040FFFF60FFFF20
0010400020F0E020F0E000
ENDCHAR
ENDFONT
